<mxfile host="app.diagrams.net" modified="2022-01-10T12:51:58.702Z" agent="5.0 (Windows NT 10.0; Win64; x64) AppleWebKit/537.36 (KHTML, like Gecko) Chrome/96.0.4664.110 Safari/537.36" etag="Y9SjzS00yZp8B94BP3Tp" version="16.1.2" type="github">
  <diagram id="nbDFgYtFIhRArq2cRslt" name="第 1 页">
    <mxGraphModel dx="1422" dy="754" grid="1" gridSize="10" guides="1" tooltips="1" connect="1" arrows="1" fold="1" page="1" pageScale="1" pageWidth="827" pageHeight="1169" math="0" shadow="0">
      <root>
        <mxCell id="0" />
        <mxCell id="1" parent="0" />
        <mxCell id="RP8TbA6VVncFAgnVdZ08-4" style="edgeStyle=orthogonalEdgeStyle;rounded=0;orthogonalLoop=1;jettySize=auto;html=1;endArrow=none;endFill=0;" edge="1" parent="1" source="RP8TbA6VVncFAgnVdZ08-1" target="RP8TbA6VVncFAgnVdZ08-3">
          <mxGeometry relative="1" as="geometry" />
        </mxCell>
        <mxCell id="RP8TbA6VVncFAgnVdZ08-1" value="" style="shape=mxgraph.cisco.computers_and_peripherals.macintosh;sketch=0;html=1;pointerEvents=1;dashed=0;strokeWidth=2;verticalLabelPosition=bottom;verticalAlign=top;align=center;outlineConnect=0;" vertex="1" parent="1">
          <mxGeometry x="90" y="280" width="99" height="64" as="geometry" />
        </mxCell>
        <mxCell id="RP8TbA6VVncFAgnVdZ08-5" style="edgeStyle=orthogonalEdgeStyle;rounded=0;orthogonalLoop=1;jettySize=auto;html=1;entryX=0.98;entryY=0.5;entryDx=0;entryDy=0;entryPerimeter=0;endArrow=none;endFill=0;" edge="1" parent="1" source="RP8TbA6VVncFAgnVdZ08-2" target="RP8TbA6VVncFAgnVdZ08-3">
          <mxGeometry relative="1" as="geometry" />
        </mxCell>
        <mxCell id="RP8TbA6VVncFAgnVdZ08-2" value="" style="shape=mxgraph.cisco.computers_and_peripherals.macintosh;sketch=0;html=1;pointerEvents=1;dashed=0;strokeWidth=2;verticalLabelPosition=bottom;verticalAlign=top;align=center;outlineConnect=0;" vertex="1" parent="1">
          <mxGeometry x="650" y="280" width="99" height="64" as="geometry" />
        </mxCell>
        <mxCell id="RP8TbA6VVncFAgnVdZ08-3" value="" style="shape=mxgraph.cisco.storage.cloud;sketch=0;html=1;pointerEvents=1;dashed=0;strokeWidth=2;verticalLabelPosition=bottom;verticalAlign=top;align=center;outlineConnect=0;" vertex="1" parent="1">
          <mxGeometry x="300" y="259" width="186" height="106" as="geometry" />
        </mxCell>
        <mxCell id="RP8TbA6VVncFAgnVdZ08-6" value="" style="shape=curlyBracket;whiteSpace=wrap;html=1;rounded=1;flipH=1;rotation=90;size=0.5;" vertex="1" parent="1">
          <mxGeometry x="392" y="150" width="44" height="460" as="geometry" />
        </mxCell>
        <mxCell id="RP8TbA6VVncFAgnVdZ08-7" value="&lt;font style=&quot;font-size: 18px&quot;&gt;&lt;b&gt;cwnd&lt;/b&gt;&lt;/font&gt;" style="text;html=1;resizable=0;autosize=1;align=center;verticalAlign=middle;points=[];fillColor=none;strokeColor=none;rounded=0;" vertex="1" parent="1">
          <mxGeometry x="376" y="410" width="60" height="20" as="geometry" />
        </mxCell>
        <mxCell id="RP8TbA6VVncFAgnVdZ08-8" value="&lt;font style=&quot;font-size: 18px&quot;&gt;拥塞窗口，反映网络传输能力的变量&lt;/font&gt;" style="text;html=1;resizable=0;autosize=1;align=center;verticalAlign=middle;points=[];fillColor=none;strokeColor=none;rounded=0;" vertex="1" parent="1">
          <mxGeometry x="275" y="460" width="300" height="20" as="geometry" />
        </mxCell>
        <mxCell id="RP8TbA6VVncFAgnVdZ08-9" value="&lt;b&gt;发送方&lt;/b&gt;" style="text;html=1;resizable=0;autosize=1;align=center;verticalAlign=middle;points=[];fillColor=none;strokeColor=none;rounded=0;fontSize=18;" vertex="1" parent="1">
          <mxGeometry x="90" y="229" width="70" height="30" as="geometry" />
        </mxCell>
        <mxCell id="RP8TbA6VVncFAgnVdZ08-10" value="&lt;b&gt;接收方&lt;/b&gt;" style="text;html=1;resizable=0;autosize=1;align=center;verticalAlign=middle;points=[];fillColor=none;strokeColor=none;rounded=0;fontSize=18;" vertex="1" parent="1">
          <mxGeometry x="664.5" y="229" width="70" height="30" as="geometry" />
        </mxCell>
        <mxCell id="RP8TbA6VVncFAgnVdZ08-11" value="" style="shape=curlyBracket;whiteSpace=wrap;html=1;rounded=1;flipH=1;fontSize=18;rotation=90;" vertex="1" parent="1">
          <mxGeometry x="675" y="335" width="40" height="90" as="geometry" />
        </mxCell>
        <mxCell id="RP8TbA6VVncFAgnVdZ08-13" value="&lt;b&gt;awnd&lt;/b&gt;" style="text;html=1;resizable=0;autosize=1;align=center;verticalAlign=middle;points=[];fillColor=none;strokeColor=none;rounded=0;fontSize=18;" vertex="1" parent="1">
          <mxGeometry x="665" y="410" width="60" height="30" as="geometry" />
        </mxCell>
        <mxCell id="RP8TbA6VVncFAgnVdZ08-14" value="接收端通知窗口" style="text;html=1;resizable=0;autosize=1;align=center;verticalAlign=middle;points=[];fillColor=none;strokeColor=none;rounded=0;fontSize=18;" vertex="1" parent="1">
          <mxGeometry x="629.5" y="450" width="140" height="30" as="geometry" />
        </mxCell>
      </root>
    </mxGraphModel>
  </diagram>
</mxfile>
